<svg width="904" height="694" viewBox="0 0 904 694" fill="none" xmlns="http://www.w3.org/2000/svg">
<path fill-rule="evenodd" clip-rule="evenodd" d="M388.331 3.50687C578.609 -13.9465 735.617 45.0268 843.861 135.267C874.892 161.08 913.681 191.147 900.351 236.973C894.107 258.547 871.497 269.027 855.193 270.787C807.013 276.12 791.312 237.933 764.829 218.053C685.917 158.907 595.733 112.72 452.424 112.72C310.237 112.72 221.568 157.387 139.893 218.053C114.745 236.733 94.0773 272.973 53.3147 270.787C27.012 269.387 3.13065 251.88 0.523988 221.88C-2.87068 182.907 35.2547 158.667 64.592 135.267C150.14 66.9601 258.048 15.5069 388.331 3.50687Z" fill="#FFFFFF"/>
<path fill-rule="evenodd" clip-rule="evenodd" d="M404.511 188C503.669 177.453 597.005 199.627 668.099 240.72C719.859 270.547 785.559 308.12 781.009 361.213C778.769 386.907 759.735 406.547 739.613 410.067C692.707 418.547 691.489 396.013 671.853 380.013C626.764 343.28 563.001 304.12 483.541 297.213C362.661 286.613 297.812 332.36 238.896 380.013C219.867 395.4 207.567 414.24 171.08 410.067C145.472 407.16 122.893 382.187 122.168 357.4C121.137 320.733 168.411 286.787 189.959 270.787C249.477 226.547 309.901 198.173 404.511 188Z" fill="#FFFFFF"/>
<path fill-rule="evenodd" clip-rule="evenodd" d="M412.089 372.36C479.639 362.973 546.213 377.333 596.577 410.067C626.275 429.453 663.791 459.04 660.583 496.733C658.039 527.04 634.399 548.187 607.855 549.467C568.395 551.16 551.488 505.16 506.244 489.093C469.453 476.253 425.544 481.827 397.057 492.854C357.083 508.614 334.721 548.973 302.871 549.467C271.355 549.947 243.537 521.774 242.656 492.854C240.715 431.28 355.965 380.36 412.089 372.36Z" fill="#FFFFFF"/>
<path fill-rule="evenodd" clip-rule="evenodd" d="M516.392 629.347C516.392 664.987 487.396 693.961 451.697 693.961C415.999 693.961 387.059 664.987 387.059 629.347C387.059 593.587 415.999 564.614 451.697 564.614C487.396 564.614 516.392 593.587 516.392 629.347Z" fill="#FFFFFF"/>
</svg>
