<svg width="904" height="694" viewBox="0 0 904 694" fill="none" xmlns="http://www.w3.org/2000/svg">
<path fill-rule="evenodd" clip-rule="evenodd" d="M388.974 3.50687C579.254 -13.9465 736.253 45.0268 844.493 135.267C875.533 161.08 914.32 191.147 900.987 236.973C894.747 258.547 872.133 269.027 855.827 270.787C807.653 276.12 791.947 237.933 765.467 218.053C686.56 158.907 596.373 112.72 453.067 112.72C310.88 112.72 222.2 157.387 140.533 218.053C115.387 236.733 94.7201 272.973 53.9467 270.787C27.6534 269.387 3.77335 251.88 1.16001 221.88C-2.22665 182.907 35.8933 158.667 65.2267 135.267C150.773 66.9601 258.68 15.5069 388.974 3.50687Z" fill="#4E4E53"/>
<path fill-rule="evenodd" clip-rule="evenodd" d="M405.146 188C504.306 177.453 597.64 199.627 668.733 240.72C720.493 270.547 786.2 308.12 781.653 361.213C779.413 386.907 760.373 406.547 740.253 410.067C693.347 418.547 692.133 396.013 672.493 380.013C627.4 343.28 563.64 304.12 484.187 297.213C363.307 286.613 298.453 332.36 239.533 380.013C220.507 395.4 208.2 414.24 171.72 410.067C146.107 407.16 123.533 382.187 122.8 357.4C121.773 320.733 169.053 286.787 190.6 270.787C250.12 226.547 310.546 198.173 405.146 188Z" fill="#4E4E53"/>
<path fill-rule="evenodd" clip-rule="evenodd" d="M412.733 372.36C480.28 362.973 546.853 377.333 597.213 410.067C626.906 429.453 664.426 459.04 661.226 496.733C658.68 527.04 635.04 548.187 608.493 549.467C569.026 551.16 552.12 505.16 506.88 489.093C470.093 476.253 426.186 481.827 397.693 492.854C357.72 508.614 335.36 548.973 303.506 549.467C271.986 549.947 244.173 521.774 243.293 492.854C241.346 431.28 356.6 380.36 412.733 372.36Z" fill="#FFFFFF"/>
<path fill-rule="evenodd" clip-rule="evenodd" d="M517.026 629.347C517.026 664.987 488.04 693.961 452.333 693.961C416.64 693.961 387.693 664.987 387.693 629.347C387.693 593.587 416.64 564.614 452.333 564.614C488.04 564.614 517.026 593.587 517.026 629.347Z" fill="#FFFFFF"/>
</svg>
