<svg width="904" height="694" viewBox="0 0 904 694" fill="none" xmlns="http://www.w3.org/2000/svg">
<path fill-rule="evenodd" clip-rule="evenodd" d="M388.331 3.22716C578.609 -14.2262 735.617 44.7471 843.861 134.987C874.892 160.814 913.681 190.867 900.351 236.694C894.107 258.267 871.497 268.76 855.193 270.507C807.013 275.84 791.312 237.667 764.829 217.787C685.917 158.627 595.733 112.44 452.424 112.44C310.237 112.44 221.568 157.12 139.893 217.787C114.745 236.454 94.0773 272.694 53.3147 270.507C27.012 269.12 3.13065 251.6 0.523988 221.6C-2.87068 182.627 35.2547 158.387 64.592 134.987C150.14 66.6805 258.048 15.2272 388.331 3.22716Z" fill="#4E4E53"/>
<path fill-rule="evenodd" clip-rule="evenodd" d="M404.511 187.721C503.669 177.174 597.005 199.361 668.099 240.454C719.859 270.267 785.559 307.854 781.009 360.934C778.769 386.641 759.735 406.281 739.613 409.787C692.707 418.281 691.489 395.734 671.853 379.734C626.764 343.001 563.001 303.841 483.541 296.934C362.661 286.334 297.812 332.094 238.896 379.734C219.867 395.121 207.567 413.974 171.08 409.787C145.472 406.881 122.893 381.907 122.168 357.121C121.137 320.454 168.411 286.507 189.959 270.507C249.477 226.267 309.901 197.907 404.511 187.721Z" fill="#4E4E53"/>
<path fill-rule="evenodd" clip-rule="evenodd" d="M412.089 372.094C479.639 362.694 546.213 377.067 596.577 409.787C626.275 429.187 663.791 458.761 660.583 496.454C658.039 526.761 634.399 547.92 607.855 549.187C568.395 550.894 551.488 504.881 506.244 488.827C469.453 475.974 425.544 481.547 397.057 492.574C357.083 508.334 334.721 548.707 302.871 549.187C271.355 549.68 243.537 521.494 242.656 492.574C240.715 431 355.965 380.094 412.089 372.094Z" fill="#4E4E53"/>
<path fill-rule="evenodd" clip-rule="evenodd" d="M516.392 629.067C516.392 664.707 487.396 693.681 451.697 693.681C415.999 693.681 387.059 664.707 387.059 629.067C387.059 593.307 415.999 564.347 451.697 564.347C487.396 564.347 516.392 593.307 516.392 629.067Z" fill="#FFFFFF"/>
</svg>
