<svg width="904" height="694" viewBox="0 0 904 694" fill="none" xmlns="http://www.w3.org/2000/svg">
<path fill-rule="evenodd" clip-rule="evenodd" d="M388.653 3.50687C578.933 -13.9465 735.933 45.0268 844.187 135.267C875.213 161.08 914 191.147 900.667 236.973C894.427 258.547 871.813 269.027 855.507 270.787C807.333 276.12 791.627 237.933 765.147 218.053C686.24 158.907 596.053 112.72 452.747 112.72C310.56 112.72 221.893 157.387 140.213 218.053C115.067 236.733 94.4 272.973 53.6399 270.787C27.3333 269.387 3.45328 251.88 0.839946 221.88C-2.54672 182.907 35.5733 158.667 64.9066 135.267C150.453 66.9601 258.373 15.5069 388.653 3.50687Z" fill="#4E4E53"/>
<path fill-rule="evenodd" clip-rule="evenodd" d="M404.827 188C503.987 177.453 597.32 199.627 668.413 240.72C720.173 270.547 785.88 308.12 781.333 361.213C779.093 386.907 760.053 406.547 739.933 410.067C693.027 418.547 691.813 396.013 672.173 380.013C627.08 343.28 563.32 304.12 483.867 297.213C362.987 286.613 298.133 332.36 239.213 380.013C220.186 395.4 207.88 414.24 171.4 410.067C145.787 407.16 123.213 382.187 122.48 357.4C121.453 320.733 168.733 286.787 190.28 270.787C249.8 226.547 310.227 198.173 404.827 188Z" fill="#FFFFFF"/>
<path fill-rule="evenodd" clip-rule="evenodd" d="M412.413 372.36C479.96 362.973 546.533 377.333 596.893 410.067C626.6 429.453 664.107 459.04 660.907 496.733C658.36 527.04 634.72 548.187 608.173 549.467C568.72 551.16 551.813 505.16 506.56 489.093C469.773 476.253 425.866 481.827 397.373 492.854C357.4 508.614 335.04 548.973 303.186 549.467C271.68 549.947 243.853 521.774 242.973 492.854C241.026 431.28 356.28 380.36 412.413 372.36Z" fill="#FFFFFF"/>
<path fill-rule="evenodd" clip-rule="evenodd" d="M516.707 629.347C516.707 664.987 487.72 693.961 452.013 693.961C416.32 693.961 387.373 664.987 387.373 629.347C387.373 593.587 416.32 564.614 452.013 564.614C487.72 564.614 516.707 593.587 516.707 629.347Z" fill="#FFFFFF"/>
</svg>
