<svg width="904" height="694" viewBox="0 0 904 694" fill="none" xmlns="http://www.w3.org/2000/svg">
<path fill-rule="evenodd" clip-rule="evenodd" d="M388.653 3.22716C578.933 -14.2262 735.933 44.7471 844.187 134.987C875.213 160.814 914 190.867 900.667 236.694C894.427 258.267 871.813 268.76 855.507 270.507C807.333 275.84 791.627 237.667 765.147 217.787C686.24 158.627 596.053 112.44 452.747 112.44C310.56 112.44 221.893 157.12 140.213 217.787C115.067 236.454 94.4 272.694 53.6399 270.507C27.3333 269.12 3.45328 251.6 0.839946 221.6C-2.54672 182.627 35.5733 158.387 64.9066 134.987C150.453 66.6805 258.373 15.2272 388.653 3.22716Z" fill="#4E4E53"/>
<path fill-rule="evenodd" clip-rule="evenodd" d="M404.827 187.721C503.987 177.174 597.32 199.361 668.413 240.454C720.173 270.267 785.88 307.854 781.333 360.934C779.093 386.641 760.053 406.281 739.933 409.787C693.027 418.281 691.813 395.734 672.173 379.734C627.08 343.001 563.32 303.841 483.867 296.934C362.987 286.334 298.133 332.094 239.213 379.734C220.186 395.121 207.88 413.974 171.4 409.787C145.787 406.881 123.213 381.907 122.48 357.121C121.453 320.454 168.733 286.507 190.28 270.507C249.8 226.267 310.227 197.907 404.827 187.721Z" fill="#4E4E53"/>
<path fill-rule="evenodd" clip-rule="evenodd" d="M412.413 372.094C479.96 362.694 546.533 377.067 596.893 409.787C626.6 429.187 664.107 458.761 660.907 496.454C658.36 526.761 634.72 547.92 608.173 549.187C568.72 550.894 551.813 504.881 506.56 488.827C469.773 475.974 425.866 481.547 397.373 492.574C357.4 508.334 335.04 548.707 303.186 549.187C271.68 549.68 243.853 521.494 242.973 492.574C241.026 431 356.28 380.094 412.413 372.094Z" fill="#4E4E53"/>
<path fill-rule="evenodd" clip-rule="evenodd" d="M452.027 675.214C443.467 675.214 435.56 672.721 428.693 668.667L491.693 605.681C495.747 612.561 498.24 620.481 498.24 629.054C498.24 654.521 477.533 675.214 452.027 675.214ZM452.027 582.814C461.413 582.814 470.12 585.654 477.413 590.467L413.493 654.387C408.68 647.107 405.853 638.414 405.853 629.054C405.853 603.507 426.52 582.814 452.027 582.814ZM452.013 564.347C416.32 564.347 387.373 593.307 387.373 629.067C387.373 664.707 416.32 693.681 452.013 693.681C487.72 693.681 516.707 664.707 516.707 629.067C516.707 593.307 487.72 564.347 452.013 564.347Z" fill="#ED1D24"/>
</svg>
