<svg width="904" height="694" viewBox="0 0 904 694" fill="none" xmlns="http://www.w3.org/2000/svg">
<path fill-rule="evenodd" clip-rule="evenodd" d="M388.974 3.22716C579.254 -14.2262 736.253 44.7471 844.493 134.987C875.533 160.814 914.32 190.867 900.987 236.694C894.747 258.267 872.133 268.76 855.827 270.507C807.653 275.84 791.947 237.667 765.467 217.787C686.56 158.627 596.373 112.44 453.067 112.44C310.88 112.44 222.2 157.12 140.533 217.787C115.387 236.454 94.7201 272.694 53.9467 270.507C27.6534 269.12 3.77335 251.6 1.16001 221.6C-2.22665 182.627 35.8933 158.387 65.2267 134.987C150.773 66.6805 258.68 15.2272 388.974 3.22716Z" fill="#D3D2D2"/>
<path fill-rule="evenodd" clip-rule="evenodd" d="M405.146 187.721C504.306 177.174 597.64 199.361 668.733 240.454C720.493 270.267 786.2 307.854 781.653 360.934C779.413 386.641 760.373 406.281 740.253 409.787C693.347 418.281 692.133 395.734 672.493 379.734C627.4 343.001 563.64 303.841 484.187 296.934C363.307 286.334 298.453 332.094 239.533 379.734C220.507 395.121 208.2 413.974 171.72 409.787C146.107 406.881 123.533 381.907 122.8 357.121C121.773 320.454 169.053 286.507 190.6 270.507C250.12 226.267 310.546 197.907 405.146 187.721Z" fill="#D3D2D2"/>
<path fill-rule="evenodd" clip-rule="evenodd" d="M412.733 372.094C480.28 362.694 546.853 377.067 597.213 409.787C626.906 429.187 664.426 458.761 661.226 496.454C658.68 526.761 635.04 547.92 608.493 549.187C569.026 550.894 552.12 504.881 506.88 488.827C470.093 475.974 426.186 481.547 397.693 492.574C357.72 508.334 335.36 548.707 303.506 549.187C271.986 549.68 244.173 521.494 243.293 492.574C241.346 431 356.6 380.094 412.733 372.094Z" fill="#D3D2D2"/>
<path fill-rule="evenodd" clip-rule="evenodd" d="M517.026 629.067C517.026 664.707 488.04 693.681 452.333 693.681C416.64 693.681 387.693 664.707 387.693 629.067C387.693 593.307 416.64 564.347 452.333 564.347C488.04 564.347 517.026 593.307 517.026 629.067Z" fill="#D3D2D2"/>
<path fill-rule="evenodd" clip-rule="evenodd" d="M471.827 357.64L759.2 70.2672C764.08 65.4005 764.08 57.4939 759.2 52.6139L757.347 50.7606C752.467 45.8806 744.573 45.8806 739.693 50.7606L452.32 338.134L164.947 50.7606C160.067 45.8806 152.16 45.8806 147.293 50.7606L145.427 52.6139C140.56 57.4939 140.56 65.4005 145.427 70.2672L432.813 357.64L145.427 645.027C140.56 649.894 140.56 657.801 145.427 662.681L147.293 664.534C152.16 669.401 160.067 669.401 164.947 664.534L452.32 377.161L739.693 664.534C744.573 669.401 752.467 669.401 757.347 664.534L759.2 662.681C764.08 657.801 764.08 649.894 759.2 645.027L471.827 357.64Z" fill="#ED1D24"/>
</svg>
