<svg xmlns="http://www.w3.org/2000/svg" x="0px" y="0px" width="100" height="100" viewBox="0 0 50 50"
style="fill:#FFFFFF;">
<path d="M 18.957031 13 C 9.648438 13 6.125 19.21875 5.3125 21 L 1.152344 21 L -0.179688 29 L 4.027344 29 C 4.132813 30.085938 4.550781 31.941406 6.085938 33.609375 C 8.160156 35.859375 11.527344 37 16.09375 37 L 39.800781 37 L 40.726563 33 L 43.019531 33 C 47.277344 33 50 30.699219 50 27.136719 C 50 26.09375 49.660156 25.234375 49.125 24.558594 C 49.640625 23.800781 50 22.828125 50 21.605469 C 50 18.886719 47.761719 17.125 44.289063 17.035156 L 45.25 13 Z M 31.09375 19 C 36.375 19 35.65625 23 35.65625 23 L 32.324219 23 C 32.5625 21.808594 31.667969 21.546875 30.875 21.546875 C 30.085938 21.546875 29.515625 21.886719 29.515625 22.488281 C 29.515625 23.960938 35.09375 22.945313 35.09375 27.019531 C 35.09375 28.785156 33.6875 31 29.8125 31 C 27.160156 31 24.898438 29.878906 25 27 L 28.402344 27 C 28.402344 27.574219 28.492188 28.484375 30.023438 28.484375 C 30.644531 28.484375 31.691406 28.21875 31.691406 27.355469 C 31.691406 25.722656 26.152344 26.566406 26.152344 22.78125 C 26.152344 20.71875 28.03125 19 31.09375 19 Z M 13.777344 19 L 17.566406 19 L 16.226563 25.355469 C 16.226563 25.355469 15.269531 28.082031 17.460938 28.082031 C 19.515625 28.082031 19.765625 25.546875 19.765625 25.546875 L 21.210938 19.003906 L 25 19.003906 L 23.4375 25.984375 C 23.4375 25.980469 23.332031 31 17.179688 31 C 11.945313 31 11.945313 27.375 12.011719 27.015625 C 12.078125 26.652344 13.777344 19 13.777344 19 Z M 38.15625 19.019531 L 44.03125 19.019531 C 45.136719 19.019531 48 19.300781 48 21.605469 C 48 24.199219 45.5625 24.761719 45.5625 24.761719 C 45.5625 24.761719 48 25.074219 48 27.136719 C 48 31.058594 43.425781 31 43.019531 31 L 35.578125 31 Z M 41.046875 22.011719 L 40.671875 24.011719 L 42.988281 24.011719 C 43.035156 24.011719 43.125 24 43.230469 23.96875 C 43.335938 23.941406 43.460938 23.898438 43.578125 23.824219 C 43.578125 23.824219 43.582031 23.824219 43.582031 23.824219 C 43.640625 23.789063 43.699219 23.742188 43.75 23.691406 C 43.75 23.691406 43.753906 23.691406 43.753906 23.691406 C 43.914063 23.539063 44.035156 23.316406 44.035156 22.996094 C 44.03125 22.140625 43.171875 22.011719 43.171875 22.011719 Z M 42.445313 26.007813 C 42.390625 26.007813 42.359375 26.011719 42.359375 26.011719 L 40.191406 26.011719 L 39.734375 28.011719 L 42.21875 28.011719 C 42.25 28.011719 42.300781 28.011719 42.363281 28.011719 C 42.382813 28.011719 42.414063 28.007813 42.433594 28.007813 C 42.492188 28.007813 42.535156 28.003906 42.609375 27.996094 C 42.707031 27.988281 42.800781 27.96875 42.90625 27.941406 C 42.996094 27.925781 43.078125 27.90625 43.167969 27.871094 C 43.199219 27.855469 43.230469 27.84375 43.265625 27.828125 C 43.296875 27.8125 43.328125 27.792969 43.359375 27.769531 C 43.402344 27.742188 43.445313 27.707031 43.484375 27.667969 C 43.507813 27.640625 43.535156 27.617188 43.5625 27.585938 C 43.59375 27.542969 43.617188 27.496094 43.640625 27.445313 C 43.660156 27.40625 43.679688 27.375 43.695313 27.328125 C 43.726563 27.234375 43.746094 27.125 43.746094 27 C 43.746094 26.871094 43.726563 26.765625 43.691406 26.667969 C 43.679688 26.632813 43.660156 26.605469 43.640625 26.574219 C 43.613281 26.515625 43.585938 26.464844 43.546875 26.421875 C 43.527344 26.394531 43.503906 26.371094 43.480469 26.34375 C 43.4375 26.304688 43.394531 26.269531 43.347656 26.238281 C 43.316406 26.21875 43.285156 26.199219 43.25 26.183594 C 43.222656 26.167969 43.191406 26.15625 43.160156 26.144531 C 43.074219 26.105469 42.996094 26.089844 42.90625 26.070313 C 42.804688 26.046875 42.722656 26.03125 42.640625 26.023438 C 42.558594 26.015625 42.53125 26.011719 42.484375 26.011719 C 42.472656 26.011719 42.453125 26.007813 42.445313 26.007813 Z"></path>
</svg>
